<svg width="0" height="0" style="position: absolute" aria-hidden="true" xmlns="http://www.w3.org/2000/svg">
<symbol id="icon-arrow" viewBox="0 0 12 27"> <path d="M-0.005,26.996 L9.018,13.500 L-0.005,0.004 L2.982,0.004 L12.005,13.500 L2.982,26.996 L-0.005,26.996 Z"/> </symbol>
<symbol id="icon-close" viewBox="0 0 37 37"> <path d="M22.8,18.6,36.3,5.2A3.1,3.1,0,0,0,37.2,3a2.88,2.88,0,0,0-.9-2,3.08,3.08,0,0,0-4.2,0L18.6,14.4,5.2.9A3.1,3.1,0,0,0,3,0,2.88,2.88,0,0,0,1,.9,3.23,3.23,0,0,0,.2,3a2.58,2.58,0,0,0,.9,2.1L14.4,18.6.9,32A3.1,3.1,0,0,0,0,34.2a2.88,2.88,0,0,0,.9,2A3.23,3.23,0,0,0,3,37a2.72,2.72,0,0,0,2.1-.9L18.6,22.8,32,36.3a2.88,2.88,0,0,0,2.1.9h.1a2.87,2.87,0,0,0,2-.9,3.2,3.2,0,0,0,.1-4.2Z"/> </symbol>
</svg>