<svg width="0" height="0" style="position: absolute" aria-hidden="true" xmlns="http://www.w3.org/2000/svg">
<symbol id="icon-arrow" viewBox="0 0 9 17"> <path d="M8.607 9.157c-.043.045-.097.066-.146.101L2.036 15.9a.966.966 0 1 1-1.39-1.344L6.52 8.484.464 2.626a.968.968 0 0 1 1.345-1.39l6.707 6.488c.016.014.036.019.051.034.1.095.172.208.221.328a.963.963 0 0 1-.181 1.071z"/> </symbol>
<symbol id="icon-close" viewBox="0 0 15 15"> <path d="M9.275 7.501l4.975 4.923c.493.486.494 1.275.001 1.76a1.274 1.274 0 0 1-1.785-.001L7.494 9.264 2.53 14.175a1.275 1.275 0 0 1-1.785-.002 1.232 1.232 0 0 1-.001-1.76L5.71 7.499.736 2.577A1.233 1.233 0 0 1 .734.816 1.276 1.276 0 0 1 2.52.817l4.971 4.92L12.455.825a1.275 1.275 0 0 1 1.785.002c.494.486.494 1.275.002 1.761L9.275 7.501z"/> </symbol>
</svg>